<svg width="18" height="18" viewBox="0 0 18 18" fill="none" xmlns="http://www.w3.org/2000/svg">
<g clip-path="url(#clip0_3_668)">
<path d="M8.99999 12.9378V14.6254M5.06204 7.87487V8.99996C5.06204 10.0443 5.47693 11.0459 6.21544 11.7844C6.95395 12.5229 7.95558 12.9378 8.99999 12.9378C10.0444 12.9378 11.046 12.5229 11.7845 11.7844C12.5231 11.0459 12.9379 10.0443 12.9379 8.99996V7.87487M8.99999 3.37451C9.93208 3.37451 10.6877 4.13009 10.6877 5.06215V8.99996C10.6877 9.93202 9.93208 10.6876 8.99999 10.6876C8.06791 10.6876 7.3123 9.93202 7.3123 8.99996V5.06215C7.3123 4.13009 8.06791 3.37451 8.99999 3.37451Z" stroke="#D1A153" stroke-width="2" stroke-linecap="round"/>
</g>
<defs>
<clipPath id="clip0_3_668">
<rect width="13.5" height="13.5" fill="white" transform="translate(2.25 2.25)"/>
</clipPath>
</defs>
</svg>
